<svg height="372" width="930" xmlns="http://www.w3.org/2000/svg"><style>.H{fill-rule:evenodd}.I{fill:#fb399d}.J{fill:#fff}.K{fill:#87271e}.L{fill:#ff9630}.M{fill:#ff3e5c}.N{fill:#872016}</style><defs><clipPath id="A"><path d="M-327-426h1584V798H-327z"></path></clipPath></defs><g clip-path="url(#A)"><path class="L" d="M899.8 341.9l.7.5q.2-.2.5-.4c-.3-.1-.5-.1-.8-.1q-.2 0-.4 0z"></path><g class="H"><path fill="#f83a9b" d="M922.4 312.3c-1.7-1.9-4-4.3-6.3-5.1-.4-1.1-.8-1.9-1.1-2.3 3.4.2 6.6 3.5 8.8 6.1q-.9.4-1.4 1.3zm-5.3 8.6q.2-1.1.4-2.1c2 1.4 3.9 3.4 5.3 5-.6.3-1.1.8-1.5 1.4-1.1-1.3-2.6-3-4.2-4.3zm-6 11.5q.7-.8 1.2-1.6c2.6 1.4 4.9 4 6.6 6-.7.3-1.2.7-1.6 1.3-1.5-1.9-3.9-4.5-6.2-5.7zM901 342q1-.7 1.9-1.5c2.7 1.2 5.2 3.9 7 6-.6.3-1.1.8-1.5 1.3-1.9-2.2-4.8-5.4-7.4-5.8zm-1.8-.6q.4.3.6.5c-.2-.1-.4-.3-.6-.5z"></path><path class="I" d="M921.8 314.3c0-.7.2-1.4.6-2 .3-.5.8-1 1.4-1.3s1.2-.5 1.8-.5a3.8 3.8 0 1 1 0 7.6 3.8 3.8 0 0 1-3.8-3.8zm1 9.5c.5-.3 1.1-.4 1.7-.4a3.8 3.8 0 0 1 3.8 3.8c0 2-1.7 3.7-3.8 3.7s-3.8-1.7-3.8-3.7c0-.8.2-1.5.6-2 .4-.6.9-1.1 1.5-1.4zm-3.9 13q.7-.3 1.5-.4a3.8 3.8 0 1 1 0 7.6 3.8 3.8 0 0 1-3.8-3.8c0-.8.3-1.5.7-2.1s.9-1 1.6-1.3zm-9 9.7c.5-.3 1.1-.5 1.7-.5a3.8 3.8 0 1 1 0 7.6c-2 0-3.7-1.7-3.7-3.8 0-.7.2-1.4.5-2 .4-.5.9-1 1.5-1.3z"></path></g><g class="L"><path d="M916.1 307.2c-.4-1.1-.9-1.9-1.1-2.3q-.3-.5-.3-.5c-5.6-8.4-15.5-13.6-25.8-16.9v5.7a6.06 6.06 0 0 1-1.1 3.5c-1.3 1.8-3.4 2.9-5.7 2.7q0 0 0 0l-10.8 8.7-4 3.3-16.5 13.5c19.5-6.6 42.9 11.8 48.4 16.5q.4.3.6.5.2 0 .4 0 .4 0 .8.1 1-.7 1.9-1.5 2.4-1.9 4.3-3.7 0 0 0 0 .1-.2.3-.3.1-.1.2-.3.8-.8 1.5-1.5.2-.3.4-.5.2-.2.4-.4 0 0 0 0 .6-.7 1.1-1.4.7-.8 1.2-1.6a26.15 26.15 0 0 0 3.5-6.2q.1 0 .1 0l.3-.9q.1-.4.3-.8.2-.8.4-1.5.1-.2.2-.5 0-.1 0-.3.1-.3.2-.6 0 0 0 0 .1-.6.2-1.2c.8-5.1-.3-9.1-1.4-11.6z"></path><path class="H" d="M915.8 324.6q.2-.5.4-.9l-.3.9q0 0-.1 0zm1.1-3.2q.2-.4.2-.8 0 .2 0 .3-.1.3-.2.5zm.2-.8q0 0 0 0 0 0 0 0zm-.2.8q0 0 0 0 0 0 0 0zm.3-.9q0-.3.1-.5 0 0 0 0-.1.3-.1.5zm-.1.1q.1 0 .1-.1 0 .1-.1.1zm-9.9 16.2q.1-.2.3-.3-.2.1-.3.3 0 0 0 0z"></path><path d="M910 333.8q0 0 0 0-.2.2-.4.4.2-.2.4-.4z"></path></g><path class="M" d="M887.8 296.7c-1.3 1.8-3.4 2.9-5.7 2.7q0 0 0 0c11.9 3.7 24.5 11.1 33.7 25.2q.2-.5.4-.9.1-.4.3-.8.2-.8.4-1.5.2-.4.2-.8.1-.3.2-.6c-8.4-12.2-19-19.2-29.5-23.3z"></path><path class="K" d="M871.3 308.1l-4 3.3c13.6 2.4 28.9 9 39.9 25.4q.1-.2.3-.3.1-.1.2-.3.8-.8 1.5-1.5.2-.3.4-.5.2-.2.4-.4c-10.8-15.6-25.3-22.7-38.7-25.7z"></path><path class="N" d="m849.8 295.6l1 29.3 16.5-13.5 4-3.3 10.8-8.7z"></path><g class="K"><path class="H" d="M511.1 101.7c3 0 5.7-1.3 7.5-3.4q.4-.3.7-.7.5-.4.9-.9.6-.5 1.1-1.1c2.1-1.8 3.4-4.5 3.4-7.5A10.07 10.07 0 0 0 514.6 78c-3 0-5.7 1.4-7.5 3.4q-.4.4-.7.7c-1.8 1.1-3.2 2.7-4.1 4.6-.8 1.5-1.3 3.1-1.3 4.9a10.07 10.07 0 0 0 10.1 10.1zm-156.2 39.7q-1.6 2.7-2.9 5.4c-13.3 26.7-10.3 55.3 7.6 65.6 14.6 8.5 34.8 2.2 50.6-13.8q.3-.3.6-.6.5-.5 1-1 .6-.6 1.1-1.1 2.6-2.5 5.1-5.4c1.4-1.7-.2-4.3-2.4-3.7l-22.6 5.8q-.6.1-1.1.5-1.2 1.2-2.4 2.2-.4.2-.7.5c-.6.6-1.2 1.1-1.8 1.7-2.6 2.1-5.3 4-8 5.5-2.2 1.3-5 .1-5.6-2.3-2-7.8-2-16.9 0-26.3l40.1-10.5q0 0 0 0l17-4.3c.7-.2 1.2-.6 1.5-1.1q.4-.3.7-.7.5-.4.7-1c.5-.2 1-.5 1.2-1 .6-.3 1-.9 1.2-1.6 4.1-19.9-.9-38.3-14.5-46.1-13.7-7.9-32.4-2.9-47.7 11.1-7 5.7-13.5 13.2-18.7 22.2zm21.8 21.6c1.6-4.1 3.5-8.3 5.8-12.3 3.3-5.7 7.2-10.8 11.3-15.3 4.6-4.2 9.5-7.7 14.4-10.3 2.3-1.2 5 .1 5.5 2.6 1.7 7.5 1.4 16.5-.8 25.9z"></path><path d="M601.3 155.8c.6-.3 1-.9 1.2-1.6 4.1-19.9-.9-38.3-14.5-46.1-13.7-7.9-32.4-2.9-47.7 11.1-7 5.7-13.5 13.2-18.7 22.2q-1.6 2.7-2.9 5.5c-13.3 26.6-10.3 55.2 7.6 65.5 14.6 8.5 34.8 2.2 50.6-13.8q.3-.3.6-.6.5-.5 1-1 .6-.6 1.1-1.1 2.6-2.5 5.1-5.4c1.4-1.7-.2-4.3-2.4-3.7l-22.6 5.8q-.6.1-1.1.5-1.2 1.2-2.4 2.2-.4.2-.7.5-.9.9-1.8 1.7c-2.6 2.1-5.3 4-8 5.5-2.2 1.3-5 .1-5.6-2.3-3.7-14.3-.8-32.8 9.1-50 3.3-5.7 7.2-10.8 11.3-15.3 4.6-4.2 9.5-7.7 14.4-10.3 2.3-1.2 5 .1 5.5 2.6 2.1 9.5 1.2 21.2-2.9 33.2-.6 1.8 1 3.5 2.7 3l17-4.3c.7-.2 1.2-.6 1.5-1.1q.4-.3.7-.7.5-.4.7-1c.5-.2 1-.5 1.2-1z"></path><g class="H"><path d="M695.3 201.7c-.7 3-2.2 5.1-4 6.8q-.5.5-1.1 1-.3.4-.7.8-.4.4-.8.8c-6.2 6.8-18.1 5.3-18.1 5.3-8-.8-10.7-5.5-11.4-10-13.9 10-29.6 12.9-41.5 6-17.9-10.3-20.9-38.9-7.6-65.6q1.3-2.7 2.9-5.4c5.2-9 11.7-16.5 18.7-22.2 15.3-14 34-19 47.7-11.1.4.2.8.5 1.1.7q.1-.1.2-.2c.3-.9 1-1.6 2-1.9q.2-.2.4-.3.3-.7 1-1.1c.8-1.2 2.3-1.8 3.8-1.2 4.4 1.8 9.5 5.9 13.1 10.2 1.6 1.9 2.2 4.5 1.6 6.9l-20.1 81.6c-.9 3.7 3.7 4 7.1 2.1q.3-.2.6-.4.4-.4.7-.8c.2-.2.4-.3.7-.2q0-.1 0-.1.1-.1.2-.1.1-.2.3-.2.1-.2.2-.3.4-.4.8-.9.1-.1.3-.2.3-.3.6-.6c.5-.7 1.5-.2 1.3.6zm-50.2-4.2c6.2-5.7 12-12.8 16.8-21.1q1.2-2.1 2.3-4.2c2.2-4.5 4-9 5.4-13.4l2.1-8.4c1.6-8.2 1.6-16 .1-22.7-.5-2.5-3.3-3.7-5.5-2.6-5 2.6-9.8 6.1-14.4 10.3-4.1 4.5-8 9.6-11.3 15.3-9.9 17.2-12.8 35.7-9.1 50 .6 2.4 3.4 3.6 5.6 2.3q4.1-2.3 8-5.5zm232.1 5.3c-.9 3.7 3.8 4 7.1 2.1q.4-.2.7-.4.3-.4.6-.8c.2-.2.5-.3.8-.2q0-.1 0-.1.1-.1.1-.1.2-.2.3-.2.2-.2.3-.3.4-.4.8-.9.1-.1.2-.2.4-.3.6-.6c.6-.7 1.6-.2 1.4.6-.8 3-2.2 5.1-4 6.8q-.5.5-1.1 1-.4.4-.7.8-.4.4-.9.8c-6.1 6.8-18.1 5.3-18.1 5.3-8-.8-10.6-5.5-11.3-10-14 10-29.6 12.9-41.5 6-17.9-10.3-21-38.9-7.7-65.6q1.4-2.7 2.9-5.4c5.2-9 11.7-16.5 18.8-22.2 15.3-14 34-19 47.7-11.1.4.2.7.5 1.1.7q.1-.1.1-.2c.3-.9 1.1-1.6 2-1.9q.2-.2.4-.3.4-.7 1.1-1.1c.7-1.2 2.2-1.8 3.7-1.2 4.4 1.8 9.6 5.9 13.2 10.2 1.6 1.9 2.2 4.5 1.6 6.9zm-37.4-5.4c6.2-5.6 12-12.7 16.8-21q1.2-2.2 2.3-4.3c2.2-4.4 4-8.9 5.4-13.4l2.1-8.4c1.6-8.2 1.6-16 .1-22.7-.5-2.4-3.3-3.7-5.5-2.5-5 2.5-9.8 6-14.4 10.3-4.1 4.4-8 9.5-11.2 15.3-10 17.1-12.9 35.7-9.2 49.9.6 2.5 3.4 3.7 5.6 2.4q4.1-2.4 8-5.6zM504 201.7c-.7 2.9-2.1 5.1-3.9 6.7q-.5.6-1.1 1.1-.4.4-.8.8-.4.4-.8.8c-6.1 6.7-18.1 5.3-18.1 5.3-16.2-1.8-10.5-19.2-10.5-19.2l20.1-80.8c.4-1.8.2-3.7-.1-5.4-.1-.9.1-1.8.6-2.4.3-1 1.1-1.7 2-2q.2-.1.4-.3.4-.7 1-1.1c.8-1.2 2.3-1.8 3.8-1.2 4.4 1.9 9.6 6 13.2 10.3 1.6 1.9 2.1 4.4 1.6 6.8l-20.2 81.7c-.9 3.7 3.8 3.9 7.1 2q.3-.2.6-.4.4-.4.7-.7c.2-.3.5-.3.7-.3q.1 0 .1 0 0-.1.1-.2.1-.1.3-.2.1-.1.3-.3.4-.4.7-.8.2-.1.3-.2.3-.4.6-.7c.5-.6 1.5-.1 1.3.7zm291.2-.6q-.3.3-.6.6-.1.1-.2.2-.4.5-.8.9-.1.1-.3.3-.1 0-.3.2 0 0-.1.1 0 0-.1.1c-.2-.1-.5 0-.7.2q-.3.4-.6.8-.3.2-.7.4c-3.3 1.9-8 1.6-7.1-2.1l11.1-45 .5-1.7c4.3-18.6.8-36-10.1-45.2q-1.9-1.6-4-2.8c-10-5.8-21.7-.8-32.8 9.3-3.4 2.8-6.8 6-10.1 9.7l1.5-5.9c.5-2.4 0-5-1.6-6.9-3.6-4.3-8.8-8.4-13.2-10.2q-.3-.2-.7-.2-.8-.1-1.5.1c-.6.2-1.2.7-1.6 1.3q-.6.4-1 1.1-.2.1-.4.2 0 0-.1.1c-.9.3-1.6 1-1.9 2-.5.6-.7 1.4-.6 2.3.3 1.7.5 3.6.1 5.5l-5.1 20.3-15 60.5s-5.7 17.4 10.5 19.1c0 0 1.9.3 4.6.1q.7.1 1.4-.1c.7-.2 1.3-.7 1.7-1.3q.3-.2.6-.6.5-.4.8-1 .8-.3 1.2-1c1-.7 1.6-1.8 1.3-3.1-.3-1.7-.4-3.6 0-5.5l5.1-20.3c3.5-14.4 10.6-27.7 20.5-38.6 4.5-5.1 7.9-8.6 7.9-8.6q.5-.6 1.1-1.1c4.5-4.2 9.3-7.6 14.2-10.2 2.3-1.2 5 .1 5.5 2.6q.5 2.1.8 4.4c.6 5.9.2 11.9-1.3 17.6l-11.8 47.6s-5.7 17.4 10.5 19.1c0 0 12 1.5 18.1-5.3q.5-.4.9-.8.3-.4.7-.8.6-.5 1.1-1c1.8-1.7 3.2-3.8 4-6.8.1-.7-.9-1.3-1.4-.6zm-486.3 3.8c2.7 13.8 10.7 24.2 29.3 25.1 5.4.3 11.7-.2 18.7-1.6q1.4-1 2.2-1.9.4-.4.7-.7.5-.4.8-.8.7-.6 1.1-1.1c1.3-1.2 2-2.2 2-3.2 0-3-5.5-2.8-10.2-2.8-2.1 0-3.8.1-4.9-.2-15.1-3.1-17.6-18.3-16.2-34.6.8-9.9 3.2-20.3 8.6-41.5l3.7-14.4q.9-3.5 1.8-7.1l9-36.4 10-40.8c.7-2.6 0-5.3-1.7-7.4q-.5-.6-1.1-1.3c-3.1-3.4-7-6.5-10.6-8.5q-1-.5-1.9-.9-.3-.2-.5-.3c-1.6-.6-3.2 0-4 1.2q-.6.4-1 1 0 .1-.1.2-.1.1-.3.2c-.7.2-1.3.7-1.8 1.4q-.2.3-.3.7-.1.1-.1.1c-.5.7-.7 1.5-.5 2.4.3 1.5.4 3.2.2 4.9l-4.2 7.2c-13.1 23.9-35.2 58.6-49.4 86.5q-1.2 2.5-2.4 4.9c-1.4-10.8-2.1-24.5-3.1-40.1l-2.8-37.4-.6-3.6c-.6-5.5-1.4-12-2.7-18.4v.2c-1.3-9.4-3-14.6-4.3-17.4q-.3-.6-.6-1.2c-.7-1.1-1.1-1.6-1.3-1.8-4.6-5.7-10.9-11.1-16.5-13.7-1.9-.9-3.9-.2-5 1.3q-.7.5-1.1 1.2 0 0-.1 0c-1.1.4-2.1 1.3-2.5 2.5-.5.8-.8 1.8-.6 2.8q0 0 0 .1c.3 2.2.3 4.8-.3 7.3l-37.1 119.5c-4.4 11.8-10.2 26.3-17.3 40.7-8.9 17.7-19.9 35.1-33.1 47-9.7 7.9-20.5 12.8-32.5 12.8-1.2 0-2.5 0-3.9-.1h.1c-14.7-2.8-22.3-21.3-20.6-42.6.7-6.5 2.7-14.7 5.1-21.6 4.9-11.2 12.3-22 20.1-30.3 9.1-8.6 18.3-13.5 24.7-11.8 12.1 1.6 14.6 17.2 13.4 31.2-.4 4.8-1.3 9.3-2.4 13.1 0-.1-.3 1.1-.5 1.8-.4 1-.8 2.5-.8 3.7-.3 2.2.4 4 3.3 3.7 1.1 0 2.1-.6 2.8-1.6q.4-.3.8-.7.4-.4.8-.9.6-.4 1.1-1c2.6-2.1 3.8-8.2 4.4-11.8.1-.4.3-.9.3-1.2.5-2.7 1.1-5.9 1.3-8.7 2.2-24.8-7.5-49.5-33.3-48-11.4 1.2-22.2 6.8-31.2 15-8.9 7.2-16.3 16.8-21.7 27.6-3 6-5.4 12.3-7.1 18.7-1.3 5.4-2.3 11-2.7 16.1-2.5 29.4 10.1 54.6 36.5 62.9h-.1c5.7 1.9 12 2.9 18.2 2.9 10.2 0 20.8-2.6 30.1-7.6 9.3-4.9 17.6-11.4 25-18.9q.4-.4.8-.8.3-.3.7-.7.6-.6 1.2-1.2c19.1-19.1 32.6-45.6 42.9-73q1.4-3.7 2.7-7.5c5.4-14.5 10-29.2 15.3-46.6.2-.8.5-1.7.8-2.6q2.7-8.7 5.8-18.3l.3 7.2c1.5 25.9 3.4 57.1 7.4 72.2 1.5 5.3 5.2 10.2 13.1 8.3 2.3-.6 4-1.7 5.2-3.1q.3-.2.6-.5.6-.5 1.1-1.2.5-.4 1-.9c2.1-1.8 3.2-4.4 4.3-7.4.3-1.3.9-2.6 1.3-4v.2l39.4-70.8q-.6 2.7-1.2 5.2l-7 28.2c-3.8 14.9-7.9 31.5-10.4 43.8-1.9 8.6-4.1 19.2-5 29.5-.7 7.7-.7 15.2.6 22zm162.8-103.1c3 0 5.7-1.3 7.5-3.4q.4-.3.7-.6.4-.4.8-.9.6-.5 1.1-1.1c2.1-1.8 3.4-4.5 3.4-7.5 0-5.5-4.4-10-10-10-3 0-5.6 1.3-7.5 3.4q-.3.3-.6.6c-1.8 1.1-3.3 2.7-4.1 4.6-.8 1.5-1.3 3.1-1.3 4.9 0 5.5 4.5 10 10 10zm2.1 12.5c-3.6-4.2-8.6-8.3-13-10.1-1.5-.7-3.1-.1-3.8 1.1q-.7.5-1.1 1.2-.2.1-.4.2c-.9.3-1.6 1-1.9 2-.5.6-.8 1.4-.6 2.3.3 1.7.4 3.6.1 5.5 0 0-26.7 105.3-38.5 139q-1.5 4.2-3.4 8.2c-3.8 7.9-9 15.1-15.3 21.3-.7.6-1.3 1.2-2 1.8-2.6 2.1-5.2 4-7.9 5.5-2.2 1.3-5 .1-5.6-2.4-2.3-8.9-2-19.5 1-30.4.5-1.8-1.1-3.4-2.9-3l-9.7 2.4c-3.2.9-6.1 2.6-8.2 4.9q-.2.1-.3.3c-2.5 1.7-4.4 3.9-5.7 6.6-2.3 3.9-2.9 8.7-1.4 13.4 2.5 7.6 7 13.8 13.5 17.5 11.1 6.4 25.4 4.3 38.6-4.1 4.3-2.8 8.6-6.3 12.5-10.5q.4-.4.8-.8.3-.3.6-.5.6-.7 1.3-1.3c4.2-4.2 8.1-9.1 11.5-14.7q.6-1 1.2-2c2.8-4.8 5-9.8 6.7-14.8q.6-1.8 1.2-3.7l18.1-62.7 16.2-65.4c.6-2.4 0-4.9-1.6-6.8z"></path></g></g><path class="I" d="M486.1 87.9c0 5.5-4.5 10-10 10s-10-4.5-10-10c0-5.6 4.5-10 10-10s10 4.4 10 10z"></path><path class="J" d="M474.3 79.6c-2.3 1.4-3.9 3.5-4.4 5.9-.3 1.2-.2 2.5-.2 3.8l.2 1.9.3 2.1c-.4-.6-.7-1.2-1-1.9q-.4-.9-.7-2c-.3-1.3-.5-2.8-.1-4.3.3-1.4 1-2.8 2.1-3.8s2.5-1.6 3.8-1.7z"></path><path class="I" d="M474.7 113.9c-3.6-4.3-8.7-8.3-13.1-10.2-2.2-.9-4.6 1-4.2 3.4.3 1.7.4 3.6 0 5.4 0 0-26.6 105.4-38.4 139-4 11.5-10.4 22-19.2 30.4-4.1 4-8.5 7.4-12.9 10-2.2 1.3-5 .1-5.6-2.4-2.3-8.9-2-19.5 1-30.4.5-1.8-1.1-3.5-3-3l-9.6 2.4c-9.5 2.4-15.1 12.3-12.1 21.6 2.5 7.7 7 13.8 13.5 17.6 11.1 6.4 25.4 4.3 38.5-4.2 8.7-5.5 16.8-13.8 23.2-24.2q.7-1 1.2-2c2.8-4.9 5.1-9.8 6.8-14.8q.6-1.9 1.1-3.7l18.2-62.7 16.2-65.4c.5-2.4 0-4.9-1.6-6.8z"></path><g class="H"><path class="J" d="M380 259.5c-.6-.6-1.5-.8-2.3-.6l-4.3.9-4.2 1a12.05 12.05 0 0 0-4.1 2c-2.5 1.8-4.4 4.4-5.3 7.3-.4 1.4-.6 2.9-.5 4.4s.4 3 .9 4.3c-.6-2.8-.4-5.8.6-8.4s2.7-5 5-6.6c2.2-1.7 5.1-2.2 7.9-3.1l4.2-1.2a1.68 1.68 0 0 1 1.8.2c.6.5.9 1.2.7 1.9.3-.7.1-1.5-.4-2.1zm79.2-145.2l-1.2 4.9-2.5 9.8-5 19.7-10.4 39.1c-1.8 6.5-15.4 51.5-17.4 58l-3.2 9.5q-1.8 4.8-4.1 9.2c-3 6-6.9 11.6-11.4 16.6-4.4 5-9.6 9.4-15.3 13 11.8-6.7 21.3-17 27.8-29q2.4-4.5 4.2-9.3c1.2-3.2 2.2-6.4 3.3-9.6 2.1-6.4 15.7-51.5 17.5-58q5.5-19.5 10.2-39.2 2.3-9.9 4.5-19.8l2.2-9.9 1-5c.2-1.7.1-3.4-.2-5 .2 1.6.3 3.4 0 5z"></path><path class="I" d="M683.4 202.4c-1 3.7 3.7 3.9 7.1 2 1.8-1 3.3-2.5 4.4-3.8.5-.6 1.5-.1 1.3.7-3.3 13.3-21.2 11.1-21.2 11.1-8-.8-10.7-5.5-11.3-10-14 10-29.7 12.9-41.6 6.1-18.9-11-21.2-42.4-5.1-70.2 16-27.8 44.4-41.6 63.3-30.6q2.4 1.4 4.5 3.2c.1-1.3-.1-2.6-.3-3.8-.4-2.4 2-4.4 4.2-3.5 4.5 1.9 9.6 6 13.2 10.3 1.6 1.9 2.2 4.4 1.6 6.8zm-17.5-29c3.6-6.2 6.3-12.4 8.2-18.5l2.1-8.5c1.5-8.2 1.6-16 .1-22.7-.6-2.4-3.3-3.7-5.5-2.5-11 5.7-21.5 15.8-29.2 29.1-10 17.2-12.9 35.7-9.2 50 .6 2.4 3.5 3.6 5.7 2.3 10.2-6 20.3-16.1 27.8-29.2zm212.3 29c-1 3.7 3.7 4 7.1 2.1 1.8-1 3.3-2.5 4.4-3.8.5-.6 1.5-.2 1.3.6-3.3 13.4-21.2 11.2-21.2 11.2-8-.9-10.7-5.5-11.3-10.1-14 10.1-29.7 13-41.6 6.1-18.9-10.9-21.2-42.3-5.1-70.2 16-27.8 44.4-41.5 63.3-30.6q2.4 1.4 4.5 3.2c.1-1.3-.1-2.6-.3-3.8-.4-2.4 2-4.4 4.2-3.4 4.5 1.8 9.6 5.9 13.2 10.2 1.6 1.9 2.2 4.5 1.6 6.9zm-17.4-29.1c3.5-6.1 6.2-12.4 8.1-18.5l2.1-8.4c1.5-8.2 1.6-16 .1-22.7-.6-2.5-3.3-3.7-5.5-2.6-11 5.7-21.5 15.8-29.2 29.2-9.9 17.1-12.9 35.7-9.2 49.9.6 2.5 3.5 3.7 5.7 2.4 10.3-6 20.3-16.2 27.9-29.3zm-348.4-52.6l-20.2 81.7c-.9 3.7 3.8 3.9 7.1 2 1.9-1 3.4-2.5 4.4-3.8.6-.6 1.6-.1 1.4.7-3.3 13.3-21.2 11.1-21.2 11.1-16.2-1.7-10.6-19.1-10.6-19.1l20.1-80.8c.4-1.9.3-3.8 0-5.5-.4-2.4 2-4.3 4.2-3.4 4.4 1.9 9.6 6 13.2 10.3 1.6 1.9 2.2 4.4 1.6 6.8z"></path></g><path class="J" d="M487.1 210.2c-2.3-.2-4.7-.6-6.7-2-2.1-1.2-3.6-3.3-4.4-5.6-.7-2.3-.8-4.7-.7-7.1.2-2.4.9-4.8 1.4-7l6.6-27.2 7-27.1 3.6-13.5 1.9-6.8c.8-2.2 1-4.5.6-6.8.6 2.2.6 4.7-.1 6.9l-1.4 6.9-3.2 13.6-6.5 27.3-7 27.1c-.6 2.3-1.3 4.4-1.6 6.7s-.2 4.6.4 6.7c.5 2.2 1.8 4.2 3.7 5.5 1.8 1.4 4.1 1.9 6.4 2.4z"></path><g class="I"><path class="H" d="M796.1 200.6c-1.1 1.3-2.6 2.8-4.4 3.8-3.3 1.9-8 1.7-7.1-2l11.1-45 .4-1.8c4.4-18.6.8-36-10-45.2q-1.9-1.5-4-2.7c-13.1-7.6-29.2 3.4-43.2 20.2l1.7-7.2c.6-2.4 0-4.9-1.6-6.8-3.5-4.3-8.7-8.4-13.1-10.3q-.4-.1-.7-.2-.8-.1-1.5.2c-1.3.4-2.3 1.8-2 3.5.3 1.6.4 3.5 0 5.4l-5.1 20.4-15 60.4s-5.7 17.4 10.5 19.1c0 0 1.9.3 4.6.1q.8.1 1.5-.1c1.3-.5 2.3-1.9 2-3.5-.3-1.7-.4-3.6 0-5.5l5.1-20.3c3.5-14.3 10.5-27.6 20.4-38.6l8-8.5c5.8-6.4 12.2-11.4 18.8-14.9 2.3-1.1 5 .1 5.5 2.6q.5 2.2.8 4.4c.7 5.9.2 11.9-1.3 17.6l-11.8 47.6s-5.6 17.4 10.5 19.1c0 0 17.9 2.2 21.2-11.1.2-.8-.8-1.3-1.3-.7zm-373.9-92.9c-18.9-11-47.3 2.8-63.3 30.6-16.1 27.8-13.8 59.2 5.1 70.1 15.9 9.2 38.5 1 54.8-18.4 1.5-1.7-.1-4.2-2.3-3.7l-22.7 5.8q-.5.2-1 .6c-4.1 4-8.5 7.3-12.9 9.9-2.2 1.3-5 .1-5.6-2.4-2.2-8.5-2.1-18.6.6-29.1l43-11.2q0 0 .1 0l17-4.3c.8-.2 1.5-.9 1.6-1.8 4.2-20-.8-38.3-14.4-46.1zm-38.8 42.6c7.7-13.4 18.3-23.5 29.3-29.2 2.2-1.1 4.9.1 5.4 2.6 1.8 8 1.4 17.4-1.1 27.4-.2.8-.9 1.4-1.7 1.6l-37.7 9.8c1.6-4.1 3.5-8.2 5.8-12.2z"></path><path d="M559.5 192.7c-4.1 4-8.5 7.3-12.9 9.9-2.2 1.3-5 .1-5.6-2.4-3.7-14.2-.8-32.8 9.1-49.9 7.7-13.4 18.3-23.5 29.2-29.2 2.3-1.1 5 .1 5.5 2.6 2.1 9.5 1.2 21.2-2.9 33.3-.5 1.7 1 3.4 2.8 2.9l17-4.3c.8-.2 1.5-.9 1.7-1.8 4.1-20-.9-38.3-14.5-46.1-18.9-11-47.3 2.8-63.3 30.6-16.1 27.8-13.8 59.2 5.1 70.1 15.9 9.2 38.5 1 54.8-18.4 1.5-1.7-.1-4.2-2.3-3.7l-22.7 5.8q-.5.2-1 .6z"></path></g><g class="H J"><path d="M686.9 104.1c-.7.3-1.4 1-1.6 1.8-.1.4-.1.8 0 1.2s.1.6.2.9q.3.9.6 1.9c.3-.6.5-1.3.5-2 .1-.3 0-.7 0-1q0-.3.1-.7c.1-.4.3-.8.7-1.1s1-.5 1.7-.6c-.5-.5-1.4-.7-2.2-.4zm-50.8 15c-3.7 3.1-7.1 6.4-10.2 10.1s-5.7 7.7-8 11.9l-1.7 3.2-1.5 3.3c-1.1 2.1-1.8 4.4-2.7 6.7-2.9 9.1-4.3 18.8-2.8 28.4.8 4.7 2.3 9.4 4.8 13.5s6 7.6 10.2 9.9c-4.1-2.5-7.4-6.1-9.6-10.3-2.3-4.1-3.6-8.6-4.3-13.3-1.3-9.3.1-18.9 3.1-27.8s7.5-17.4 13.4-24.8c2.9-3.7 6.1-7.1 9.7-10.2s7.5-5.9 11.7-8.1c-4.3 2-8.4 4.6-12.1 7.5zm42.6 4.6c2.1 7.4 2.2 15.4 1 23.1l-1.2 5.7c-.4 1.8-.9 3.8-1.5 5.6q-1.7 5.6-4.2 10.9c-3.4 7-7.5 13.6-12.6 19.5-2.5 3-5.2 5.8-8.1 8.3-3 2.5-6.1 4.8-9.5 6.7 6.4-4.3 12-9.7 16.8-15.6 4.8-6 8.9-12.6 12.1-19.5q2.5-5.2 4.3-10.7c.6-1.8 1.1-3.6 1.5-5.5l1.3-5.6c1.4-7.5 1.7-15.4.1-22.9zm205.1-19.2c-.7.1-1.3.3-1.7.6s-.6.7-.7 1.1q-.1.4-.1.7v1c0 .7-.2 1.4-.5 2q-.3-1-.6-1.9c-.1-.3-.1-.5-.2-.9s-.1-.8 0-1.2c.2-.8.9-1.5 1.6-1.8.8-.3 1.7-.1 2.2.4z"></path></g><path class="J" d="M842.9 111.6c-4.2 2.2-8.1 5-11.7 8.1s-6.8 6.5-9.8 10.2c-5.8 7.4-10.3 15.9-13.3 24.8s-4.4 18.5-3.1 27.8c.7 4.7 2 9.2 4.3 13.3 2.2 4.2 5.5 7.8 9.6 10.3-4.2-2.3-7.7-5.8-10.2-9.9s-4-8.8-4.8-13.5c-1.5-9.6-.1-19.3 2.8-28.4.9-2.3 1.6-4.6 2.7-6.7.5-1.1.9-2.2 1.5-3.3l1.7-3.2c2.3-4.2 4.9-8.2 8-11.9s6.5-7 10.2-10.1c3.7-2.9 7.8-5.5 12.1-7.5z"></path><g class="H"><path class="J" d="M873.4 123.7c2.1 7.4 2.2 15.4 1 23.1l-1.2 5.7c-.4 1.8-.9 3.8-1.5 5.6q-1.7 5.6-4.2 10.9c-3.4 7-7.5 13.6-12.6 19.5-2.5 3-5.2 5.8-8.1 8.3-3 2.5-6.1 4.8-9.5 6.7 6.4-4.3 12-9.7 16.8-15.6 4.8-6 8.9-12.6 12.1-19.5q2.5-5.2 4.3-10.7c.6-1.8 1.1-3.6 1.5-5.5l1.3-5.6c1.4-7.5 1.7-15.4.1-22.9zm-93 .7c.4 2 .9 3.9 1.1 5.9q.3 3 .3 6c-.1 3.9-.8 7.9-1.7 11.8l-5.6 23.1-5.9 23c-.9 3.7-1.1 7.8.6 11.2 1.6 3.5 5.6 5.4 9.4 6-1-.1-2-.2-2.9-.4l-1.5-.5-.7-.2-.7-.4c-1.8-.8-3.3-2.3-4.3-4.1-2.1-3.7-2-8-1.2-11.9l5.5-23.2 6-22.9c2.2-7.6 3-15.5 1.6-23.4zm-56.6-16.3c.5 2.2.5 4.7-.1 7l-1.5 6.8-3.2 13.7-6.6 27.3-6.9 27.1c-.6 2.3-1.4 4.5-1.6 6.7-.3 2.3-.3 4.6.4 6.8.5 2.2 1.8 4.2 3.7 5.5 1.8 1.4 4.2 1.9 6.4 2.4-2.3-.3-4.7-.7-6.7-2s-3.5-3.4-4.3-5.6c-.7-2.4-.8-4.8-.6-7.2.1-2.4.9-4.7 1.4-6.9l6.5-27.3 7-27.1 3.6-13.6 1.9-6.7c.8-2.3.9-4.6.6-6.9zM578.5 190l-8.2 2.4-4.1 1.1-2.1.6-1 .2c-.4.1-.7.2-.9.3-.4.3-.8 1-1.3 1.4q-.8.8-1.6 1.6-1.5 1.4-3.3 2.7c-2.3 1.7-4.8 3.2-7.6 4.1 2.1-2 4.3-3.8 6.4-5.6l3.3-2.7 1.6-1.3.8-.7c.3-.2.7-.5 1.1-.7.5-.2.8-.2 1.2-.3l1-.2 2.1-.4 4.2-.9 8.4-1.6zm-17.3-82.2q-3.4 1.7-6.6 3.8-3.2 2.1-6.1 4.6c-3.9 3.2-7.5 6.8-10.6 10.8-6.4 7.9-11.3 16.8-14.6 26.4-3.3 9.5-4.8 19.7-3.6 29.7.7 4.9 2.1 9.8 4.4 14.3 2.4 4.4 5.9 8.3 10.2 11-4.6-2.3-8.3-6.1-11-10.6-2.6-4.4-4.2-9.4-5.1-14.5s-.7-10.4-.2-15.5c.6-5.1 1.9-10.2 3.5-15.1 3.5-9.7 8.5-18.9 15.2-26.7 3.4-3.9 7.1-7.5 11.2-10.6s8.5-5.7 13.3-7.6zm26.3 16.7c1.8 4.9 2.1 10.2 1.7 15.3-.5 5.2-1.8 10.3-4 14.9.8-5.1 1.7-10 2.1-15 .5-5 .5-10 .2-15.2zm156.3 1.3c3.6-4.9 8.2-9.1 13.3-12.5 2.6-1.7 5.3-3.2 8.2-4.3s5.9-1.7 9-1.7a40.81 40.81 0 0 0-8.5 3c-2.7 1.3-5.2 2.8-7.7 4.4-2.5 1.7-4.9 3.5-7.3 5.3l-7 5.8z"></path><path class="I" d="M515.5 77.6a10.07 10.07 0 0 0-10.1 10.1c0 5.5 4.5 10 10.1 10s10.1-4.5 10.1-10a10.07 10.07 0 0 0-10.1-10.1zm-173.6 63.5l3.7-14.4q.9-3.5 1.8-7l9-36.5 10-40.7c.7-2.6 0-5.4-1.7-7.4q-.5-.7-1.1-1.3c-3.1-3.4-7-6.5-10.7-8.5q-.9-.6-1.8-1-.3-.1-.5-.2c-1.6-.7-3.3 0-4.1 1.3-.4.6-.6 1.5-.5 2.4.3 1.5.4 3.2.2 4.9l-4.6 8c-14.8 27.1-41.1 67.8-54.5 97.1-1.6-11.2-2.4-26-3.5-43.2l-2.9-37.3-.5-3.6c-.6-5.5-1.4-12.1-2.7-18.4v.2c-1.3-9.4-3-14.6-4.4-17.4q-.2-.6-.5-1.2c-.7-1.1-1.1-1.7-1.3-1.8-4.6-5.7-10.9-11.1-16.5-13.8-2.9-1.3-6.2 1.1-5.8 4.3q0 0 0 .1c.3 2.3.3 4.8-.3 7.3l-37.1 119.5c-14.2 38.2-42.3 104.1-86.4 104.1-1.2 0-2.6 0-3.9-.2h.1c-14.7-2.8-22.4-21.3-20.6-42.5.7-6.5 2.7-14.7 5.1-21.6 11.1-25.8 35.6-49.1 48.3-45.7 12.1 1.6 14.7 17.2 13.5 31.3-.4 4.7-1.4 9.3-2.5 13 0-.1-.2 1.1-.5 1.8-.4 1.1-.8 2.6-.8 3.8-.3 2.1.4 3.9 3.4 3.6 4 0 5.6-8.1 6.3-12.4.1-.4.3-.9.3-1.2.5-2.7 1-5.9 1.3-8.8 2.2-24.8-7.5-49.4-33.3-48-26.5 2.9-49 28.9-56.5 57.9-1.3 5.4-2.3 10.9-2.7 16-2.5 29.4 10.2 54.6 36.6 63h-.2c5.7 1.8 12 2.8 18.2 2.8 10.3 0 20.8-2.6 30.1-7.6 32.8-17.3 52.9-53.4 67.1-91.1q1.4-3.7 2.7-7.4c5.4-14.6 10-29.2 15.2-46.6l.9-2.7 9-28.2.7 13.6c1.4 25.9 3.3 57.2 7.4 72.3 1.5 5.2 5.1 10.1 13 8.2 5.2-1.2 7.1-4.9 8.7-9.6.2-1.2.9-2.5 1.3-3.9v.1l44.2-79.9c-.8 3.9-1.6 7.4-2.4 10.8l-7.1 28.2c-3.8 14.9-7.8 31.5-10.4 43.8-1.9 8.6-4.1 19.2-5 29.5-2 23.4 2.3 45.7 29.9 47.2 5.4.2 11.7-.3 18.8-1.6 2.1-1.7 3.2-3 3.2-4.2 0-3-5.5-2.9-10.3-2.9-2 0-3.7.2-4.8-.1-15.1-3.1-17.7-18.3-16.2-34.6.8-9.9 3.2-20.3 8.6-41.6z"></path><g class="J"><path d="M380.4 117.7c-6.3 4.6-11.8 10.4-16.2 16.9-4.3 6.5-7.6 13.7-9.8 21.2-2.3 7.5-3 15.3-3.3 23.1q.4-2.9.8-5.8l.4-2.9c.2-.9.5-1.8.7-2.8l1.2-5.6 1.7-5.5c2.4-7.3 5.6-14.3 9.9-20.6 4.2-6.4 9.6-12 15.5-16.8 3.1-2.4 6.2-4.6 9.5-6.5 3.3-2 6.7-3.8 10.3-5.3-7.4 2.3-14.4 6-20.7 10.6zm23.8 73.9l-4.2.9-2.1.4-1 .2c-.3.1-.7.1-1.2.3-.4.2-.8.5-1.1.7l-.8.7-1.6 1.3-3.3 2.7c-2.1 1.8-4.3 3.6-6.4 5.6 2.8-.9 5.3-2.4 7.6-4.1q1.8-1.3 3.4-2.7.7-.8 1.5-1.6c.5-.4 1-1.1 1.3-1.4.2-.1.5-.2.9-.3l1-.2 2.1-.6 4.1-1.1 8.2-2.4-8.4 1.6zm16.8-54.3c0 2.4-.2 4.8-.4 7.2-.3 2.3-.7 4.7-1.3 7.1 1.3-2.1 2.2-4.4 2.8-6.9.6-2.4.8-4.9.9-7.4 0-2.5-.2-5-.7-7.5-.4-2.4-1-4.8-2-7.1.3 4.9.7 9.7.7 14.6zM509.1 81a7.27 7.27 0 0 0-2.2 3.9c-.4 1.5-.2 3 .1 4.4q.3 1 .8 2c.3.6.7 1.2 1.1 1.8 0-.7-.1-1.4-.2-2.1 0-.7-.1-1.3-.1-2 0-1.3-.1-2.5.2-3.7.5-2.3 2-4.4 4.3-6-1.4 0-2.9.7-4 1.7zM118 123.9c-7.1 5.3-13 12.2-17.8 19.7l-3.3 5.8c-1 2-1.9 4-2.8 6l-1.3 3.1-1.1 3.1q-1.1 3.1-2.1 6.3c-1.1 4.3-2 8.6-3 12.9l-1.5 13.1 2.5-12.9c1.2-4.2 2.2-8.5 3.5-12.6q1.1-3.1 2.2-6.2l1.1-3.1 1.4-2.9 2.8-6 3.3-5.6c4.6-7.3 10.3-14 17.1-19.5 1.7-1.3 3.4-2.7 5.2-3.8.9-.6 1.8-1.2 2.8-1.7l2.9-1.6c3.8-2 7.9-3.7 12.2-4.7-8.8 1.3-17 5.4-24.1 10.6zM251.8 6.7l.9 5.7v.1c-3.2 14.5-7 29-10.8 43.3-4 14.4-8.1 28.7-12.7 42.9-4.6 14.1-9.4 28.3-14.9 42.1s-11.4 27.5-18.8 40.5l4.8-10.1 4.4-10.2c1.5-3.4 2.8-6.9 4.2-10.3l2.1-5.2 1.9-5.2c5.2-14 10-28.1 14.4-42.2 4.6-14.2 8.9-28.4 13-42.7q6.3-21.4 12.1-42.9zm75.8 116c-1.4 8.4-3.1 16.8-4.7 25.1-.8 4.2-1.8 8.3-2.6 12.5l-1.4 6.2c-.4 2.1-.9 4.2-1.1 6.3-1.2 8.3-1.5 16.8-.3 25.1.7 4.1 1.7 8.2 3.6 12 .9 1.9 2 3.7 3.4 5.3q2 2.4 4.6 4.3c-1.8-1.1-3.5-2.4-5-3.9-1.5-1.6-2.8-3.4-3.9-5.2-2.1-3.8-3.4-8-4.2-12.2-1.6-8.5-1.3-17.2-.2-25.7.3-2.2.8-4.3 1.3-6.3l1.4-6.3c.9-4.1 1.8-8.3 2.9-12.4 1.9-8.3 4-16.5 6.2-24.8zm-62.8-55.1c1.1 7.7 2 15.4 2.9 23.1l2.4 23.2 1.9 23.2c.2 1.9.2 4 .5 5.8q.4 2.9 1.1 5.6c.5 1.9 1.2 3.7 2.1 5.3 1 1.6 2.4 3.2 4.4 3.4-2 0-3.7-1.5-4.8-3.1-1.2-1.6-1.9-3.4-2.6-5.3q-.9-2.8-1.5-5.7c-.4-2-.5-3.9-.7-5.8l-2.4-23.2-1.9-23.2c-.6-7.8-1.1-15.5-1.4-23.3zm79.1-23.4c-1.7 3.8-3.6 7.5-5.6 11.2-1.9 3.8-4 7.4-6.1 11l-6.5 10.8-3.3 5.3-3.6 5.1c.8-1.9 1.8-3.7 2.7-5.6l2.9-5.6c1.9-3.7 4-7.4 6.1-11s4.2-7.2 6.5-10.7a190.03 190.03 0 0 1 6.9-10.5z"></path></g></g><path class="K" d="M106.6 107.9c1.5.3 3 .4 4.5.4 7.9 0 16.7-4 22.5-10q.3-.3.6-.6.5-.5 1-1.1.1-.1.2-.2c.9.2 1.5.2 2.2.3 1.9.3 3.2.4 6.1 1.5 5.8 1.6 36.4 14.2 35.9 24.8-.3.6-.5 2.3.5 2.6.7.2 1.6-.5 2.4-1.5q.3-.2.6-.5.5-.5.9-1 .6-.5 1.2-1.1c1-.9 2.1-2.5 2.3-3.3.1-.6.2-1.5.3-2.2.4-8.7-8.9-17.1-21-22.8 6.9 3 15.4 1.1 23.1-4.5.4 2.7 2 5.5 6.8 6 0 0 7.4.9 11-3.3q.4-.4.8-.8.3-.3.7-.7.6-.5 1.2-1.2c1.1-1 2.1-2.3 2.5-4.2.1-.4-.5-.7-.8-.4q-.3.4-.7.8-.1.1-.2.1-.1.2-.3.4-.6.6-1.4 1c-2 1.1-4.8 1-4.3-1.2l12.1-48.9c.4-1.4 0-2.9-1-4.1-2.1-2.5-5.2-5-7.8-6.1a1.89 1.89 0 0 0-2.4.9c-.5.3-.9.7-1 1.3q-.4.1-.8.4-.2 0-.4.1-.3-.1-.5-.3c-8.4-4.8-19.9-1.5-29.3 7.3-4.4 3.5-8.4 8.1-11.7 13.7q-1 1.7-1.8 3.5c-8 15.9-6.3 33.2 4.5 39.4q.4.2.9.4c-2.8-1.2-5.7-2.3-8.6-3.3-5.1-1.6-9.7-2.9-14.8-3.3l17.8-72.4 1.7-7.1c.3-1.1.9-2.1 1.6-2.9.9-1.2.1-2.9-1.3-3-2.9-.2-6.8.5-9.9 1.8-.7.3-1.4.8-1.8 1.4q-.7.5-1.1 1.2-.1 0-.2 0c-1.2.5-2.1 1.5-2.5 2.7-.3.4-.5.9-.6 1.4l-14.9 59.9-4.3 17.7c-2.8.7-5.3 1.7-7.3 3.1.6-1.3.8-2.6.8-4-.4-5.7-5-8.7-9.9-8.7-3.4 0-7.1 1.6-9.7 4.4q-.2.2-.5.5c-1 .6-2 1.4-2.8 2.3-.8 1-1.5 2.2-2 3.4-1.1 1.9-1.7 4-1.8 6.2-.4 5.8 3.1 11.7 12.7 13.8zm1.7-8.3c-2.9-1.8-4.1-5.4-3.9-8.9.1-1.6.5-3.3 1.3-4.8.9-.4 1.9-.7 2.8-.7 2.5 0 4.9 1.4 5.6 4.2.1.6.1 1.3.1 1.9-.1 1.3-.6 2.8-1.2 4.2-.7 1.3-2.4 3.6-2.4 3.6 0 .1-.3.6-.4.8q-.1.4.1.7c-.7-.2-1.3-.5-2-1zm69.8-14.3c-1.3.8-3 .1-3.4-1.4-2.2-8.5-.4-19.6 5.5-29.9 1.8-3 3.8-5.8 6-8.3 2.5-2.2 5.2-4.2 7.9-5.6 1.4-.7 3 .1 3.3 1.6.9 4 .9 8.6 0 13.5l-1.3 5.1q-1.2 3.9-3.1 7.8-.6 1.2-1.3 2.4c-2.7 4.7-6 8.7-9.5 12q-2 1.6-4.1 2.8zm-64.7 15.9q-.3 0-.6 0 .1-.1.3-.2c.1-.2 2.8-2.8 2.8-2.9 1.8-1.2 4.2-1.9 6.8-2.2q-1.2 1.5-2.6 2.9c-2.1 1.5-4.3 2.4-6.7 2.4z"></path><g class="I"><path d="M218.2 35.9c.3-1.4 0-3-1-4.1-2.1-2.6-5.2-5-7.8-6.1-1.4-.6-2.8.6-2.6 2 .2.7.2 1.5.2 2.3q-1.2-1.1-2.7-1.9c-11.3-6.5-28.3 1.7-37.9 18.3-9.6 16.7-8.2 35.4 3.1 42 7.1 4.1 16.5 2.4 24.9-3.6.3 2.7 1.9 5.5 6.7 6 0 0 10.7 1.3 12.7-6.7.1-.5-.5-.8-.8-.4-.6.8-1.5 1.7-2.6 2.3-2 1.1-4.8 1-4.3-1.3zm-39.1 49c-1.4.8-3 .1-3.4-1.4-2.2-8.5-.5-19.6 5.5-29.9 4.6-8 10.9-14 17.4-17.4 1.4-.7 3 .1 3.3 1.5.9 4 .9 8.7 0 13.6l-1.3 5c-1.1 3.7-2.7 7.5-4.9 11.1-4.5 7.9-10.5 13.9-16.6 17.5zM156 89.1c-5.1-1.6-9.8-3-14.9-3.4l-12.5.2c-4.1.6-7.5 1.7-10.3 3.7.6-1.3.8-2.7.8-4-.4-5.8-5-8.7-9.8-8.7-3.5 0-7.3 1.6-9.9 4.5-2 2.4-3.3 5.6-3.4 8.7-.4 5.8 3.1 11.7 12.7 13.9 1.5.2 3 .4 4.5.4 8.7 0 18.5-5 24.2-12 .9.2 1.6.2 2.3.4 1.9.2 3.2.4 6 1.4 5.9 1.7 36.5 14.2 36 24.8-.3.6-.5 2.3.5 2.7 1.3.3 3.6-2.8 3.8-4 .2-.6.3-1.4.3-2.1.6-10.9-14.1-21.3-30.3-26.5zm-44 11.7c-1.7 0-3.4-.5-5.2-1.6-2.8-1.8-4-5.4-3.9-8.9.2-2.4 1-4.8 2.5-6.6 1.3-1.6 3.3-2.4 5.2-2.4 2.5 0 4.9 1.3 5.6 4.2.1.5.1 1.2.1 1.8-.2 3-2.2 6.4-4.1 8.6v.1c-.1 1.5 1.8 2 3 1 1.8-3 5.4-4.7 9.9-5.2-3.3 4.3-8 9-13.1 9z"></path></g><g class="J"><path class="H" d="M208.9 26.7c-.5.2-.8.6-1 1.1q-.1.3 0 .7a.9.9 0 0 1 .1.5c.1.4.2.7.4 1.1.2-.3.2-.7.3-1.1v-.6q0-.2 0-.4c.1-.5.6-1 1.4-1-.3-.3-.8-.4-1.2-.3zm-37.2 14.8c-3.6 4.3-6.3 9.4-8.2 14.7-1.7 5.3-2.5 11.1-1.6 16.7.5 2.8 1.4 5.5 2.8 7.9 1.5 2.4 3.5 4.5 6 5.8-4.9-2.9-7.4-8.4-8.2-13.8-.7-5.5.1-11.1 1.8-16.4 1.8-5.2 4.5-10.2 7.9-14.5 3.4-4.4 7.6-8.2 12.6-10.8-5.1 2.4-9.5 6-13.1 10.4z"></path><path d="M203.2 38.2c1.2 4.4 1.2 9.1.5 13.6-.5 2.2-.8 4.5-1.5 6.6q-1.1 3.3-2.5 6.4c-2 4.1-4.4 8.1-7.4 11.5-2.9 3.5-6.4 6.6-10.3 8.8 3.7-2.5 7-5.7 9.8-9.2s5.3-7.3 7.1-11.4q1.5-3.1 2.6-6.3c.7-2.1 1-4.4 1.6-6.5.8-4.4 1-9 .1-13.5z"></path></g><path class="I" d="M143 86.4l17.9-73 1.7-7.1c.4-1.1.9-2.1 1.6-2.9.9-1.1.2-2.8-1.3-2.9-2.9-.3-6.7.4-9.8 1.7a4.95 4.95 0 0 0-2.8 3.2l-14.9 59.9h.1l-5.1 20.9c4.3-.2 8.5-.1 12.6.2z"></path><g class="J"><path class="H" d="M155.2 3.7c-1.2.6-2.1 1.7-2.4 2.9l-.8 3.9-1.7 7.8q-1.6 7.8-3.5 15.5L143 49.2l-3.8 14.5h.1l-.3.9-5.6 19.9c1.2-6.5 2.6-12.9 4-19.3h-.1l.2-.9 3.7-15.5c1.2-5.2 2.6-10.3 3.9-15.4q1.9-7.7 4.1-15.4c.7-2.6 1.3-5.1 2.1-7.7l1.1-3.8c.5-1.3 1.6-2.3 2.8-2.8zm-44 74.2c-1.9.2-3.7.8-5.4 1.7-1.6.9-3.2 2-4.2 3.5-1.1 1.5-1.9 3.3-2.4 5.1s-.7 3.7-.4 5.6c-1.2-3.7-.1-7.9 2.1-11.1 1.2-1.6 2.8-2.9 4.6-3.7s3.8-1.2 5.7-1.1z"></path><path d="M126.8 93.1c-1.4 2.3-3.1 4.3-5.2 6-1 .8-2.2 1.5-3.4 2a9.3 9.3 0 0 1-4 .6c2.7-.4 4.9-1.6 6.9-3.2 2.1-1.6 3.8-3.5 5.7-5.4z"></path></g><g fill="#f83a9b"><path class="H" d="M15.1 304.8c-.3.5-.8 1.3-1.2 2.4-2.3.8-4.6 3.2-6.3 5.1q-.5-.8-1.4-1.3c2.2-2.6 5.5-5.9 8.9-6.2zm-2.6 14q.2 1 .4 2.1c-1.6 1.3-3.1 3-4.2 4.3-.4-.6-.9-1.1-1.5-1.4 1.4-1.6 3.3-3.6 5.3-5zm6 13.2q.2.2.4.4c-2.3 1.2-4.7 3.8-6.2 5.7-.4-.6-.9-1-1.6-1.3 1.7-2 4-4.6 6.6-6 .3.4.5.8.8 1.2zm11.7 9.9q.2-.2.6-.5-.2.3-.6.5z"></path><path d="M20.1 346.5c.6.3 1.1.8 1.5 1.3 1.9-2.2 4.8-5.4 7.4-5.8q-1-.7-2-1.5c-2.6 1.2-5.1 3.9-6.9 6z"></path></g><path class="H I" d="M4.4 318.1a3.8 3.8 0 1 1 0-7.6c.6 0 1.2.2 1.8.5q.9.4 1.4 1.3c.4.6.6 1.3.6 2a3.8 3.8 0 0 1-3.8 3.8zm4.9 9.1c0 2-1.7 3.7-3.8 3.7s-3.8-1.7-3.8-3.7a3.8 3.8 0 0 1 3.8-3.8c.6 0 1.2.1 1.7.4.6.3 1.1.8 1.5 1.4.4.5.6 1.2.6 2zm3.4 10.9c.4.6.7 1.3.7 2.1a3.8 3.8 0 1 1-7.6 0 3.8 3.8 0 0 1 3.8-3.8q.8.1 1.5.4c.7.3 1.2.7 1.6 1.3zm9.4 11.7a3.8 3.8 0 0 1-3.8 3.8c-2 0-3.7-1.7-3.7-3.8s1.7-3.8 3.7-3.8c.7 0 1.3.2 1.8.5.6.3 1.1.8 1.5 1.3.3.6.5 1.3.5 2z"></path><path class="L" d="M79 318c-7.3-2.1-13.2-4.3-18.2-6.6q-3.1-1.5-5.7-3c-4.2-2.4-7.3-4.7-9.7-6.8q-1.9-1.7-3.1-3.2c-1.2-1.3-2-2.4-2.6-3.3-.6-1-.9-2.1-.9-3.3v-3.5c-9.5 3.3-18.4 8.3-23.5 16.1 0 0-.1.1-.2.4-.3.5-.8 1.3-1.2 2.4-1.1 2.5-2.1 6.5-1.4 11.6q.2 1 .4 2.1.1.1.1.2.3 1.4.9 2.8c.8 2.2 2.1 4.5 3.8 6.9q.4.6.8 1.2.2.2.4.4 1 1.4 2.3 2.7 2.5 2.7 5.8 5.4 1 .8 2 1.5.3.2.5.4s.3-.2.7-.5q.2-.2.6-.5c5.5-4.7 28.9-23.1 48.4-16.5z"></path><path class="N" d="M61.1 311.5l18.1 13.4.2-6.8q-.2-.1-.4-.1c-7.1-2-13-4.2-17.9-6.5z"></path><path class="M" d="M45.4 301.6q-1.9-1.7-3.1-3.2c-10.6 3.9-21 10.8-29.3 22.7q.3 1.4.9 2.8l1.4 1c8.3-12.7 19.2-19.7 30.1-23.3z"></path><path class="K" d="m18.5 332q1.2 1.6 2.7 3.1c11-15.3 26.1-21.6 39.6-23.7q-3.1-1.5-5.7-3c-12.8 2.9-26.2 9.6-36.6 23.6z"></path><path class="H L" d="M888.9 251.7v41.5a6.06 6.06 0 0 1-1.1 3.5c-1.3 1.8-3.4 2.9-5.7 2.7q0 0 0 0-15.5-1.6-30.5-3c-154.3-14.3-271.6-15.5-354.8-12.2q-.1 0-.1 0s-23.2.6-57.2 3.4q3.8-4.7 7-10 .7-1.1 1.4-2.3c3.3-5.7 6-11.6 8-17.6q.8-2.3 1.4-4.5c.1-.4 1-3.3 2.3-7.7l3.9-13.6q1-.1 2-.1.4-.1.9-.2.6 0 1.2 0c14.3-1.3 38.3-2 39.6-1.8 88.4-2.9 212.7-.9 376.1 15.7 3.2.3 5.6 3 5.6 6.2zm-525.5-8q-2.9 1-5.6 2.5-4.4 2.3-7.8 5.6a33.09 33.09 0 0 0-9.6 11.4c-4.3 7.9-5.2 17.3-2.4 25.8 1.2 3.8 2.8 7.2 4.7 10.4q-4.8.8-9.5 1.7c-141.1 31.3-215.2 27.6-253.8 17q-.2-.1-.4-.1c-7.1-2-13-4.2-17.9-6.5-13.8-6.4-19.4-13.2-21.4-16.4-.6-1-.9-2.1-.9-3.3v-36.6c0-5.1 5.7-8 9.8-5 20 15 78.2 36.8 241.2 5.9 24.4-4.7 49-8.8 73.6-12.4z"></path><path class="M" d="M755.7 251.5l.3-4c-106.3-7-236.8-7.3-296.7-1l-1.2 4.2c58.8-6.5 190.5-6.2 297.6.8z"></path><path class="K" d="M749.2 270.8l.2-4c-106.1-6.1-234.7-6-297.1 0q-1 2.2-2.1 4.2c61.2-6.2 191.6-6.4 299-.2z"></path><path class="H N" d="M790.6 248.3q-.3 0-.4 0-2.3 0-3.1.5-.9.4-2 2.2c-1.2 2-2.5 5.2-3.7 9.4l-7.4-.5 2.8-10 .1-.6h-.5q-2 .2-3.6.2-1.5 0-2.6-.1-1.8-.2-2.7-1.1l-.8-.7.1 1c.2 3 1.8 3.8 3 3.9q.6 0 1.2 0 .4 0 .9 0l-2 7.1h-.2q-.6-.1-1.1-.1-1.7 0-2.6.5-1.3.6-2.1 2.6l-.4.9.9-.4q2.1-.9 4.1-.9.3 0 .5 0h.2l-2.8 10.2-.5 2c0 .4.2.7.3.8q.3.3.9.4.1 0 .3 0 1.2 0 2.7-.7l.4-.1-.1-.3c-.1-.4-.2-.6-.1-.7q0-.6.4-1.9l2.6-9.4 7.3.6q-.6 2.3-.7 4.4c-.4 4.8 1.1 7.3 4.3 7.6q.3 0 .6 0c3 0 3.9-1.7 4.1-3.1l.1-.9-.7.5q-1.3.7-2.2.7-.1 0-.2 0-1.1-.1-1.6-1.1-.6-1-.4-3.1.1-2.5.7-4.7h.4q.1 0 .3 0c1.2 0 2.8-.5 3.3-3.1l.2-.8-.8.4q-1.6.8-2.7.8c1.5-5.3 3.5-9.2 6-11.7l.6-.7h-.9zm25.7 22.4c-.7-4.4-.9-8.7-.6-13q.2-2.3.9-5.1l.1-.5-.6.1c-1.7.1-2.8.4-3.4.7-.7.3-1.6 1.1-2.9 2.5-3.6 3.9-6.4 7-8.2 9.3l-.3.4-1.7-.1q-.3 0-.5 0-3.1 0-4 2.6l-.4.9.9-.4q1.1-.5 2.8-.5.5 0 1 0h.1l-.1.2c-2.1 2.9-3.2 5.1-3.3 6.6q0 .7.4 1.1.3.4 1 .4.1 0 .3 0 .5 0 1-.1 1.4-.4 1.7-.5l.6-.1-.3-.5q-.4-.5-.3-.9.1-1.9 2.3-5.4l.2-.3 4 .3q1.8.2 3.6.2.6 0 1.3 0c.5 5.7 1.6 8.5 3.5 8.6q0 .1.1.1 1.2 0 2.8-1.4l.3-.3-.4-.3q-1.4-1.1-1.9-4.6zm-4.6-4.7q-.3 0-.7 0-1.5 0-3.8-.2l-2.5-.2.1-.1c1.1-1.8 2.8-4 5.1-6.5q1.1-1.1 1.8-1.8c-.2 2.4-.2 5.3 0 8.8zm30.1-11.2q-1.2-.7-3.2-.9-.5 0-.9 0-3.2 0-5.4 1.6-2.6 1.9-2.9 5-.2 2.8 3 6.2l1.6 1.7c2.6 2.8 3.1 4.3 3 5.1q-.1 1.6-1.6 2.7-1.4.9-3.1.9-.3 0-.5 0c-1.6-.1-2.7-.6-3.5-1.6q-1.2-1.4-1-3.8l.1-.8-.7.5c-1.6 1-2.4 2-2.5 3q-.1 2.1 1.6 3.6 1.8 1.4 4.6 1.6.5.1 1 .1 3.4 0 6-1.8 2.9-2.1 3.1-5.6c.2-2-1-4.3-3.4-6.9l-1.3-1.4c-1.7-1.8-2.3-2.5-2.4-2.8q-.3-.5-.3-1.5.1-1.6 1.4-2.6 1.1-.8 2.6-.8.2 0 .4 0c1.9.1 3.1 1 3.9 2.7l.2.6.4-.5q1-1.3 1.1-2.3.1-1.2-1.3-2zm30.1 6.2q-2.1-2.7-5.6-3-.4 0-.8 0-3.5 0-6 2.8h-.2c-2.9 0-5.5 1-7.6 3-2.3 2.1-3.6 4.7-3.8 7.8-.2 2.9.6 5.4 2.3 7.4 1.7 2.1 4 3.2 6.8 3.4q.5 0 1 0c3.6 0 7-1.4 10.1-4.2 3.4-3 5.3-6.6 5.6-10.5.2-2.6-.4-4.9-1.8-6.7zm-15.2 5.9q-.2 1.7.5 2.4.6.8 2.4 1.2l.8.3-.4-.8q-.7-1.5-.5-3.2.1-2.4 1.8-4c1.1-1 2.2-1.5 3.5-1.5q.1 0 .3 0c1.4.1 2.5.8 3.3 2.1q1.4 2 1.2 4.8c-.3 3.2-1.5 6-3.7 8.3-2 2.2-4.2 3.2-6.5 3.2q-.3 0-.6 0c-2.1-.1-3.8-1-5-2.7q-1.9-2.4-1.7-6 .3-3.3 2-5.3 1.4-1.8 3.5-2.4-.8 1.8-.9 3.6z"></path><path class="M" d="M159.3 292.8c42.5 0 100.9-5.9 178.9-24.6q.8-2.3 2-4.5C226 291.2 154 291.5 111.9 285.9c-53.9-7.2-71.6-25.3-71.8-25.5l-1.3 1.2v3c5.3 4.6 25.2 18.8 71.8 25.1 13.2 1.8 29.3 3.1 48.7 3.1z"></path><path class="K" d="M160.2 312.6c42.6 0 100.6-6.2 177.2-25.8q-.5-1.9-.7-3.9c-109.3 28-180.5 28.4-222.8 22.8-54.6-7.1-74.5-25.6-74.7-25.7l-.4.4v4.4c6.6 5 28.1 18.7 73.9 24.8 13.1 1.8 28.8 3 47.5 3z"></path><path class="H N" d="M138.9 344.1l5.6.6-2.8 26.1-5.8-.6 1.6-14.6-6.8 9.8-3.2-.4-4.6-11-1.6 14.7-5.7-.6 2.8-26.2 5.6.6 6 14.6zm39.5 9.4q.9 2.4.9 4.8 0 2.6-1 5-.9 2.4-2.6 4.3-1.8 1.8-4.1 2.9-2.3 1.1-5 1.1-2.9 0-5.2-1.2-2.3-1.1-4-3-1.6-1.9-2.5-4.3-.9-2.4-.9-4.9 0-2.6 1-5 .9-2.4 2.6-4.2 1.7-1.9 4-3 2.3-1.1 5.1-1.1 2.9.1 5.2 1.2 2.3 1.2 4 3.1 1.6 1.9 2.5 4.3zm-8.9 12q1.2-.6 2.1-1.7.9-1.2 1.3-2.6.5-1.4.5-2.9 0-1.6-.5-3.1-.5-1.4-1.4-2.5-.8-1.1-2.1-1.7-1.2-.6-2.7-.6h-.1q-1.6 0-2.8.6-1.2.7-2.1 1.8-.9 1.1-1.4 2.5-.5 1.4-.5 2.9 0 1.6.5 3.1.5 1.4 1.4 2.5.9 1.1 2.1 1.8 1.3.6 2.8.6 1.6 0 2.9-.7zm39.9-1.1l.4 5.3-18.8 1.2-1.7-26.2 5.7-.4 1.4 20.9zm13.5-22.5l2.7 26.2-5.7.6-2.8-26.2zm32.4 16.9l.7 5.3-18.4 2.6-3.7-26 18.1-2.6.8 5.2-12.5 1.8.7 5 10.8-1.5.7 5-10.7 1.5.7 5.5zm28.7-26.3l4.8 25.8-4.6.8-14.9-12.9 2.8 15.2-5.7 1-4.8-25.8 4.4-.8 15.2 13.2-2.9-15.5zm35.9 6q.6 2.9.1 5.4-.4 2.6-1.7 4.6-1.3 2-3.5 3.4-2.1 1.4-5 2l-9.4 1.8-5-25.8 9.4-1.8q3.1-.6 5.7-.1 2.5.6 4.5 2 1.9 1.5 3.2 3.7 1.2 2.2 1.7 4.8zm-11.1 10.1q1.7-.3 2.9-1.1 1.1-.8 1.8-2 .7-1.2.8-2.7.2-1.5-.1-3.2-.3-1.8-1.1-3.1-.7-1.3-1.8-2.1-1.1-.8-2.4-1.1-1.4-.4-3.1 0l-3.7.7 2.9 15.4zm30.9-26.8l14.5 24.3-6 .9-3.6-6.1-8 1.3-1.4 7-6.1 1 6-27.6zm-1 8.3l-1.5 7.2 5.1-.9zm41.9 4.3q.3 2.1-.3 3.7-.6 1.7-1.9 2.8-1.2 1.2-2.9 1.9-1.6.6-3.6.9-1.3.2-2.6.2-1.6 0-3.1-.3-2.9-.5-5.3-1.8l-.7-.4 2-5.5 1 .8q.4.3 1.3.7.8.3 1.9.6 1.1.3 2.3.4 1.3.2 2.5 0 2-.3 2.9-1.1c.5-.4.7-.9.6-1.6q-.1-.6-.4-.9-.4-.4-1.2-.7-.8-.3-2-.5-1.2-.2-2.8-.4-1.9-.2-3.4-.5-1.6-.4-2.7-1.1-1.2-.7-1.9-1.9-.7-1.1-1-2.7-.2-2 .3-3.7.6-1.6 1.7-2.9 1.2-1.2 2.9-2 1.7-.8 3.7-1.1 2.6-.4 4.9.2 2.4.5 4.2 1.5l.7.4-2 5.4-1-.9-.9-.5q-.7-.3-1.5-.5-.8-.3-1.8-.3-1-.1-2 0-2.1.3-2.9 1.1a2.27 2.27 0 0 0-.5 1.8q.1.7.4 1 .2.3.8.5.7.3 1.8.4 1.1.2 2.7.4 1.9.1 3.5.5 1.7.3 3 1 1.3.8 2.2 2 .8 1.3 1.1 3.1zm46.2-24.2l-7.9 17.9 1 9.3-5.7.6-1-9.4-11.6-15.6 6.4-.7 7.4 10.4 5-11.8zm44 1.7l-12.4.9.4 5.4 10.3-.8.4 5.1-10.3.8.7 10.4-5.7.5-1.9-26.2 18.1-1.4zm26.9 9.9l6.5 9.6-6.6.2-5.7-8.2-4.1.2.3 8.4-5.7.3-1.1-26.3 11.5-.5q1.9 0 3.5.7 1.6.7 2.8 1.9 1.1 1.2 1.8 2.7.7 1.6.8 3.2.1 1.4-.3 2.7-.3 1.3-.9 2.4-.7 1.1-1.7 2-.5.4-1.1.7zm-1.8-7.5q0-.7-.3-1.4-.3-.7-.8-1.1-.4-.5-1-.7-.5-.3-1-.3l-5.6.3.3 7.2 5.8-.3q.6 0 1-.3.5-.2.9-.7.3-.6.5-1.2.2-.7.2-1.5zm40-9.5v13.3q.1 2.6-.5 5-.7 2.4-2 4.2-1.4 1.8-3.7 2.9-2.1 1.1-5.2 1.1 0 0-.1 0-3.1 0-5.2-1.1-2.3-1.1-3.6-3-1.4-1.8-2-4.2-.6-2.3-.6-4.8l-.1-13.3h5.8v13.3q.1 1.6.4 3 .3 1.4.9 2.5.7 1 1.8 1.6c.7.4 1.6.7 2.7.6q1.7 0 2.7-.6 1.1-.7 1.7-1.7.7-1.1 1-2.5.3-1.4.3-3l-.1-13.3zm31.6 5.2l-8.1.1.1 21h-5.8l-.1-21h-8.1l-.1-5.3 22.1-.1zm31.6 3q.9 2.4.9 4.8 0 2.6-.9 5-.9 2.4-2.6 4.3-1.7 1.8-4 2.9-2.4 1.1-5.1 1.1-2.8 0-5.2-1.1-2.3-1.1-4-3-1.6-1.9-2.5-4.3-.9-2.3-.9-4.9-.1-2.6.9-5 1-2.4 2.6-4.2 1.7-1.9 4-3 2.4-1.1 5.1-1.1 2.9 0 5.2 1.2 2.3 1.1 4 3 1.6 1.9 2.5 4.3zm-5.4 1.8q-.5-1.5-1.4-2.5-.9-1.1-2.2-1.8-1.2-.6-2.7-.6-1.6 0-2.8.7-1.3.7-2.2 1.8-.9 1.1-1.3 2.5-.5 1.4-.5 2.9 0 1.6.5 3.1.5 1.4 1.4 2.5.9 1.1 2.1 1.7 1.3.7 2.8.7 1.6 0 2.9-.7 1.2-.7 2.1-1.8.9-1.1 1.3-2.6.5-1.4.5-2.9 0-1.6-.5-3zm35.4 5.3q.7 1.3.7 3.2 0 2.1-.9 3.6-.8 1.5-2.2 2.5-1.4 1-3.1 1.4-1.7.4-3.7.4-3 0-5.7-.9-2.7-.9-5-2.6l-.6-.5 2.7-5.2 1 1q.3.3 1.1.8.8.5 1.8 1 1 .4 2.3.7 1.2.3 2.4.3c1.3 0 2.4-.2 3-.6s.8-.8.8-1.5q0-.6-.2-1-.4-.5-1-.8-.8-.4-2-.8-1.2-.4-2.7-.8-1.9-.5-3.3-1-1.5-.6-2.5-1.5-1.1-.9-1.6-2.1-.6-1.2-.6-2.8 0-2.1.8-3.6.8-1.6 2.2-2.7 1.3-1 3.1-1.6c1.2-.3 2.4-.6 3.8-.5q2.6 0 4.9.9 2.2.8 3.9 2.1l.6.5-2.8 5-.9-1q-.2-.3-.8-.6-.6-.4-1.4-.8-.8-.3-1.7-.5c-.7-.2-1.3-.2-2-.2-1.4 0-2.4.2-3 .6-.5.4-.7 1-.7 1.8q0 .6.2.9.2.4.7.7.7.4 1.7.7 1.1.3 2.6.7 1.9.4 3.5 1 1.6.6 2.7 1.5 1.2.9 1.9 2.3zm46.7.5q.6 1.3.6 3.2 0 2.1-.9 3.6-.8 1.6-2.2 2.5-1.4.9-3.2 1.3-1.6.4-3.4.4-.2 0-.3 0-2.9 0-5.6-1-2.8-.9-5-2.7l-.6-.5 2.8-5.1.9 1q.4.4 1.1.9.8.5 1.8.9 1.1.5 2.3.8 1.2.3 2.5.3c1.3.1 2.3-.1 3-.6.5-.3.8-.8.8-1.5q0-.6-.3-1-.3-.4-1-.8-.7-.4-1.9-.8-1.2-.4-2.8-.8-1.8-.5-3.2-1.1-1.5-.6-2.5-1.5-1.1-.9-1.6-2.1-.5-1.2-.5-2.9 0-2 .9-3.6.8-1.5 2.1-2.6 1.4-1 3.2-1.5c1.1-.3 2.4-.5 3.7-.5q2.7.1 4.9.9 2.2.9 3.9 2.2l.7.5-2.9 5-.9-1q-.2-.3-.8-.7-.6-.4-1.4-.7-.8-.4-1.7-.6-.9-.2-1.9-.2c-1.4-.1-2.5.2-3.1.6-.5.4-.7.9-.8 1.7q0 .6.2 1 .3.3.8.6.7.4 1.7.7 1.1.4 2.6.8 1.9.5 3.4 1.1 1.6.6 2.8 1.5 1.1.9 1.8 2.3zm11.6-15.1l18.3.5-.1 5.3-12.6-.4-.1 5.1 10.9.3-.2 5.1-10.9-.3-.1 5.5 12.9.4-.2 5.3-18.6-.5zm33.3 11.3q-.5 1.4-.6 2.8 0 1.6.4 3.1.5 1.5 1.4 2.6.8 1.2 2.1 1.9 1.2.7 2.7.7.8.1 1.6-.1.8-.2 1.6-.5.8-.4 1.4-1.1.7-.6 1.1-1.5l.5-.9 4.7 3-.3.7q-.8 1.5-2 2.7-1.2 1.1-2.7 1.8-1.5.7-3.1 1-1.4.3-2.7.3-.2 0-.5 0-2.8-.1-5.1-1.4-2.2-1.3-3.8-3.3-1.6-2-2.4-4.4-.8-2.5-.7-5 .1-2.3 1.1-4.6.9-2.3 2.7-4.1 1.7-1.8 4.1-2.9c1.6-.7 3.5-1 5.5-.9q3.6.2 6.1 1.9 2.5 1.7 3.7 4.4l.4.8-4.8 2.9-.4-1.1q-.5-.9-1-1.6-.6-.7-1.3-1.1-.7-.4-1.5-.6-.9-.2-1.6-.2-1.7-.1-3 .5-1.2.6-2.1 1.7-1 1.1-1.5 2.5zm50.2 1.1q.8 2.4.6 4.9-.2 2.6-1.3 4.9-1.1 2.3-3 4-1.8 1.7-4.2 2.7-2 .7-4.2.7-.4 0-.9 0-2.8-.2-5.1-1.5-2.2-1.3-3.7-3.3-1.6-2-2.3-4.4-.7-2.5-.5-5 .2-2.6 1.3-4.9 1.1-2.3 2.9-4.1 1.8-1.7 4.2-2.6 2.4-1 5.2-.8 2.8.2 5.1 1.6 2.2 1.3 3.7 3.3 1.5 2 2.2 4.5zm-5.5 1.3q-.4-1.4-1.2-2.6-.9-1.1-2.1-1.8-1.1-.8-2.6-.9-1.6-.1-2.9.5-1.3.6-2.3 1.6-1 1-1.5 2.4-.6 1.4-.7 2.9-.1 1.6.3 3.1.3 1.5 1.2 2.6.8 1.2 2 1.9 1.2.7 2.7.8 1.6.1 2.9-.4 1.3-.6 2.2-1.7 1-1 1.6-2.4.5-1.4.6-2.9.2-1.6-.2-3.1zm35 8.8q.5 1.4.3 3.3-.2 2-1.2 3.5-1 1.4-2.5 2.2-1.5.8-3.3 1.1-.9.1-1.8.1-1 0-1.9-.1-2.9-.4-5.5-1.5-2.7-1.2-4.7-3.2l-.6-.5 3.3-4.9.8 1.1q.3.4 1 .9.8.6 1.7 1.2 1 .5 2.2 1 1.2.4 2.5.5 1.9.3 3-.3c.6-.3.9-.7 1-1.4q0-.6-.2-1-.3-.5-.9-.9-.7-.5-1.8-1-1.2-.5-2.7-1.1-1.8-.7-3.2-1.4-1.4-.7-2.3-1.7-.9-1-1.4-2.3-.4-1.2-.2-2.9.2-2 1.2-3.4.9-1.5 2.4-2.5 1.4-.9 3.3-1.2 1.8-.3 3.8-.1 2.6.3 4.8 1.4 2.1 1.1 3.6 2.5l.6.6-3.3 4.7-.8-1.1c-.1-.1-.3-.4-.7-.7q-.6-.5-1.3-.9-.8-.4-1.7-.8-.9-.3-1.9-.4c-1.4-.1-2.4 0-3.1.4-.5.3-.9.8-.9 1.6q-.1.6.1 1 .2.3.7.7.6.5 1.6.9 1 .4 2.5.9 1.8.7 3.3 1.4 1.5.8 2.6 1.8 1.1 1.1 1.6 2.5z"></path></g></svg>